<svg id="svg" version="1.1" xmlns="http://www.w3.org/2000/svg" xmlns:xlink="http://www.w3.org/1999/xlink" width="400" height="400" viewBox="0, 0, 400,400">
  <g id="svgg">
    <path id="path0" d="M194.810 68.994 C 193.484 69.474,172.900 81.120,149.069 94.873 C 125.239 108.626,103.657 121.005,101.111 122.381 C 89.533 128.639,84.952 133.234,83.736 139.808 C 83.077 143.376,83.205 255.989,83.873 259.736 C 85.386 268.221,86.707 269.423,107.593 281.300 C 114.315 285.123,129.565 293.921,141.481 300.850 C 193.480 331.087,194.327 331.538,199.232 331.568 C 204.252 331.600,207.478 330.334,217.681 324.328 C 221.299 322.199,242.093 310.170,263.889 297.599 C 285.685 285.028,304.852 273.972,306.481 273.031 C 311.578 270.087,314.448 266.569,315.712 261.716 C 316.564 258.445,316.630 140.593,315.781 137.908 C 313.985 132.224,309.384 128.079,298.159 122.029 C 295.210 120.441,274.044 108.310,251.121 95.071 C 228.199 81.833,208.200 70.407,206.680 69.681 C 202.950 67.900,198.540 67.645,194.810 68.994 M203.077 73.515 C 206.091 74.301,204.116 73.195,256.683 103.532 C 312.675 135.845,309.736 133.970,311.968 138.802 L 312.778 140.556 312.965 198.519 C 313.162 259.753,313.171 259.364,311.460 263.886 C 309.852 268.138,307.479 269.893,290.185 279.630 C 283.133 283.600,238.192 309.523,218.889 320.754 C 202.344 330.381,200.273 330.827,191.852 326.578 C 189.310 325.295,106.645 277.694,97.243 272.100 C 92.340 269.182,89.158 265.659,87.954 261.816 C 86.934 258.560,87.127 142.631,88.157 139.700 C 90.061 134.283,88.083 135.594,136.674 107.546 C 159.790 94.203,182.037 81.340,186.111 78.962 C 196.196 73.074,198.519 72.328,203.077 73.515 M197.175 76.431 C 195.090 77.114,197.316 75.850,144.630 106.278 C 89.040 138.383,93.042 135.868,91.262 139.813 L 90.425 141.667 90.335 200.185 C 90.239 262.631,90.169 260.035,92.042 263.698 C 93.673 266.889,94.033 267.135,112.407 277.593 C 118.926 281.303,135.009 290.586,148.148 298.221 C 203.848 330.588,199.226 328.682,208.755 323.210 C 212.148 321.261,294.759 273.565,302.332 269.182 C 306.790 266.602,308.809 264.252,309.586 260.741 C 310.318 257.433,310.232 143.474,309.496 141.296 C 308.017 136.917,304.347 133.727,295.185 128.855 C 290.308 126.261,213.060 81.839,209.246 79.435 C 204.270 76.298,200.470 75.352,197.175 76.431 M204.350 82.790 C 206.834 83.826,299.652 137.555,301.129 138.812 C 301.950 139.510,303.082 141.089,303.781 142.508 L 305.000 144.984 305.000 200.918 C 305.000 264.699,305.300 259.031,301.722 262.789 C 300.080 264.514,215.938 313.736,205.149 319.284 C 202.927 320.427,198.648 320.640,196.223 319.728 C 193.097 318.554,100.338 264.748,98.775 263.203 C 97.981 262.418,96.890 260.835,96.351 259.684 L 95.370 257.593 95.370 201.111 L 95.370 144.630 96.373 142.591 C 98.122 139.034,98.375 138.875,147.695 110.405 C 201.622 79.275,198.993 80.557,204.350 82.790 M191.362 122.368 C 182.248 132.027,174.561 140.120,174.281 140.353 C 173.870 140.694,172.601 139.334,167.750 133.356 C 163.374 127.963,161.609 126.037,161.287 126.304 C 161.043 126.507,156.043 132.918,150.175 140.553 C 144.307 148.187,139.242 154.514,138.920 154.613 C 138.597 154.712,132.833 155.974,126.111 157.418 C 119.389 158.862,113.789 160.158,113.667 160.299 C 112.458 161.694,107.898 171.481,108.456 171.481 C 108.929 171.481,109.820 170.026,111.684 166.204 L 114.259 160.926 125.000 158.436 C 130.907 157.067,135.944 155.984,136.191 156.029 C 136.458 156.077,135.364 158.387,133.521 161.667 C 129.761 168.359,129.803 167.588,133.084 169.722 L 135.789 171.481 150.270 171.481 L 164.752 171.481 166.898 168.981 C 168.078 167.606,169.261 166.216,169.526 165.892 C 169.950 165.374,169.130 164.719,162.791 160.521 C 158.821 157.892,155.569 155.494,155.564 155.193 C 155.551 154.375,160.036 129.101,160.228 128.909 C 160.318 128.817,160.779 129.151,161.251 129.649 C 161.895 130.330,181.876 152.142,188.378 159.262 L 189.226 160.191 184.405 165.744 L 179.583 171.296 187.624 171.396 C 192.046 171.451,195.732 171.429,195.814 171.346 C 195.897 171.263,195.372 167.733,194.649 163.500 C 193.371 156.029,193.294 154.741,194.197 155.951 C 194.435 156.270,197.694 159.895,201.439 164.006 L 208.248 171.481 221.197 171.481 L 234.145 171.481 232.826 169.722 C 232.100 168.755,230.995 167.262,230.371 166.405 L 229.236 164.847 230.081 164.317 C 230.546 164.026,234.009 161.996,237.778 159.806 C 241.546 157.616,244.695 155.768,244.774 155.700 C 244.854 155.631,243.876 149.895,242.602 142.954 C 241.327 136.012,240.345 130.276,240.420 130.205 C 240.495 130.135,243.426 133.269,246.934 137.169 C 250.442 141.068,254.025 145.018,254.897 145.946 C 256.375 147.520,257.243 147.942,267.831 152.236 L 279.181 156.838 283.201 164.149 C 286.910 170.892,287.302 171.461,288.244 171.471 L 289.266 171.481 288.173 169.537 C 287.571 168.468,285.595 164.926,283.781 161.667 L 280.482 155.741 269.782 150.727 L 259.083 145.713 250.620 136.282 C 245.965 131.096,242.035 126.852,241.886 126.852 C 241.738 126.852,239.980 128.733,237.981 131.033 C 235.982 133.333,234.208 135.166,234.039 135.107 C 233.870 135.048,228.212 128.500,221.466 120.556 C 214.721 112.611,208.917 105.818,208.568 105.459 C 207.967 104.840,207.094 105.697,191.362 122.368 M219.399 122.882 L 231.887 137.061 231.221 137.899 C 230.855 138.360,225.989 143.784,220.407 149.953 L 210.259 161.168 209.424 160.306 C 204.736 155.469,195.641 143.899,196.216 143.505 C 196.566 143.265,199.935 141.102,203.704 138.697 C 207.472 136.293,210.769 134.133,211.029 133.898 C 211.432 133.535,207.700 113.468,206.422 109.123 C 206.025 107.774,207.043 108.853,219.399 122.882 M174.527 117.376 C 170.715 118.788,167.884 121.440,166.100 125.272 C 164.789 128.088,164.776 128.055,169.537 133.936 L 173.889 139.311 176.852 136.221 C 178.481 134.521,182.313 130.489,185.367 127.261 L 190.919 121.391 189.464 120.133 C 185.675 116.858,179.170 115.657,174.527 117.376 M249.893 163.801 L 243.305 171.296 249.854 171.398 C 253.455 171.453,256.473 171.428,256.561 171.341 C 256.648 171.254,256.457 168.555,256.138 165.344 C 255.818 162.133,255.637 159.425,255.735 159.326 C 255.893 159.169,258.927 162.275,265.528 169.352 C 267.232 171.178,269.259 172.235,269.259 171.296 C 269.259 170.976,256.995 156.296,256.732 156.301 C 256.594 156.304,253.517 159.679,249.893 163.801 M98.148 200.000 L 98.148 225.556 200.185 225.556 L 302.222 225.556 302.222 200.000 L 302.222 174.444 200.185 174.444 L 98.148 174.444 98.148 200.000 M173.093 178.903 C 175.310 180.422,175.713 181.510,175.867 186.389 L 176.004 190.741 172.261 190.741 L 168.519 190.741 168.519 187.593 L 168.519 184.444 167.103 184.444 L 165.688 184.444 165.857 187.653 L 166.025 190.862 170.610 198.806 C 175.831 207.852,176.059 208.509,175.871 213.971 C 175.636 220.770,173.805 222.414,166.744 222.161 C 159.638 221.907,158.704 220.731,158.704 212.037 L 158.704 206.111 162.222 206.111 L 165.741 206.111 165.844 210.833 L 165.948 215.556 167.233 215.556 L 168.519 215.556 168.519 212.366 L 168.519 209.177 163.612 200.636 L 158.705 192.096 158.574 187.985 C 158.309 179.636,160.137 177.690,168.035 177.917 C 171.296 178.010,171.986 178.145,173.093 178.903 M193.952 178.619 C 194.598 178.965,195.515 179.792,195.989 180.457 L 196.852 181.667 196.852 201.852 L 196.852 222.037 193.519 222.037 L 190.185 222.037 190.089 203.241 L 189.993 184.444 187.867 184.444 L 185.741 184.444 185.741 203.241 L 185.741 222.037 182.407 222.037 L 179.074 222.037 178.968 202.778 C 178.839 179.416,178.784 179.771,182.778 178.313 C 184.883 177.544,192.325 177.748,193.952 178.619 M206.952 186.204 L 207.051 194.444 209.467 194.444 L 211.882 194.444 211.774 197.500 L 211.667 200.556 209.259 200.741 L 206.852 200.926 206.852 211.481 L 206.852 222.037 203.519 222.037 L 200.185 222.037 200.089 200.370 C 200.036 188.454,200.075 178.489,200.176 178.226 C 200.310 177.875,201.216 177.777,203.605 177.856 L 206.852 177.963 206.952 186.204 M227.474 178.811 C 229.889 180.312,230.370 181.928,230.371 188.543 L 230.371 194.259 234.167 195.692 C 241.404 198.424,241.482 198.573,241.480 209.686 C 241.478 222.391,242.083 221.906,226.409 221.767 L 215.225 221.667 213.902 220.383 C 212.112 218.648,211.814 217.229,211.934 211.033 L 212.037 205.741 215.463 205.634 L 218.889 205.528 218.889 210.542 L 218.889 215.556 221.111 215.556 L 223.333 215.556 223.333 207.274 L 223.333 198.992 219.223 197.410 C 212.820 194.946,211.856 193.588,211.856 187.037 C 211.856 179.362,213.619 177.748,221.852 177.890 C 225.569 177.954,226.285 178.071,227.474 178.811 M218.826 186.944 C 218.969 189.858,218.879 189.726,221.389 190.709 L 223.333 191.471 223.333 187.958 L 223.333 184.444 221.019 184.444 L 218.704 184.443 218.826 186.944 M130.185 200.000 L 130.185 203.519 126.852 203.519 L 123.519 203.519 123.410 200.401 C 123.260 196.083,123.115 196.248,126.938 196.374 L 130.185 196.481 130.185 200.000 M276.852 200.000 L 276.852 203.519 273.426 203.625 L 270.000 203.732 270.000 200.000 L 270.000 196.268 273.426 196.375 L 276.852 196.481 276.852 200.000 M230.294 208.703 L 230.402 215.556 232.423 215.556 L 234.444 215.556 234.444 209.494 L 234.444 203.432 232.543 202.642 C 231.498 202.207,230.539 201.852,230.414 201.851 C 230.288 201.851,230.234 204.935,230.294 208.703 M159.343 234.424 C 157.710 235.449,157.407 236.440,157.407 240.765 L 157.407 244.444 158.704 244.444 L 160.000 244.444 160.000 240.630 C 160.000 236.513,160.231 235.926,161.852 235.926 C 163.183 235.926,163.704 236.572,163.704 238.222 C 163.704 239.593,163.738 239.630,165.047 239.630 L 166.391 239.630 166.209 237.745 C 165.875 234.264,162.329 232.549,159.343 234.424 M185.308 234.110 C 182.900 234.807,182.222 236.230,182.222 240.584 L 182.222 244.444 183.519 244.444 L 184.815 244.444 184.815 240.762 C 184.815 237.376,184.881 237.033,185.638 236.502 C 186.923 235.602,189.820 235.745,190.833 236.759 L 191.667 237.593 190.370 237.693 C 186.646 237.980,185.055 239.893,186.156 242.761 C 186.663 244.083,190.440 244.963,192.391 244.214 C 193.211 243.900,194.074 242.128,194.074 240.759 C 194.074 239.877,194.236 239.630,194.815 239.630 C 195.358 239.630,195.556 239.383,195.556 238.704 C 195.556 238.027,195.358 237.778,194.820 237.778 C 194.328 237.778,193.903 237.344,193.537 236.470 C 192.592 234.208,188.763 233.110,185.308 234.110 M131.481 237.802 C 131.481 241.668,131.761 242.705,133.099 243.788 C 134.144 244.635,137.656 244.674,138.829 243.852 C 139.610 243.305,139.730 243.310,140.393 243.909 C 141.880 245.255,142.908 243.509,141.491 242.046 C 140.409 240.930,140.370 240.774,140.370 237.482 L 140.370 234.074 139.074 234.074 L 137.778 234.074 137.778 237.751 C 137.778 241.617,137.411 242.593,135.957 242.593 C 134.514 242.593,134.074 241.439,134.074 237.656 L 134.074 234.074 132.778 234.074 L 131.481 234.074 131.481 237.802 M210.741 239.259 L 210.741 244.444 211.852 244.444 L 212.963 244.444 212.963 242.020 C 212.963 239.943,213.093 239.466,213.868 238.691 C 215.259 237.300,217.037 238.283,217.037 240.441 C 217.037 241.390,217.155 241.481,218.382 241.481 L 219.727 241.481 219.527 239.986 C 219.130 237.029,217.469 235.713,214.537 236.033 C 213.010 236.200,212.963 236.173,212.963 235.140 C 212.963 234.203,212.829 234.074,211.852 234.074 L 210.741 234.074 210.741 239.259 M235.243 237.071 C 235.421 240.988,236.678 242.422,239.683 242.133 L 241.481 241.961 241.481 243.203 C 241.481 244.375,241.554 244.444,242.778 244.444 L 244.074 244.444 244.074 240.370 L 244.074 236.296 242.799 236.296 C 241.565 236.296,241.520 236.347,241.410 237.862 C 241.122 241.823,238.023 240.824,237.854 236.716 L 237.745 234.074 236.426 234.074 L 235.107 234.074 235.243 237.071 M260.000 239.259 L 260.000 244.444 261.071 244.444 L 262.141 244.444 262.281 241.679 C 262.434 238.650,262.764 238.056,264.295 238.056 C 265.503 238.056,266.296 239.002,266.296 240.441 C 266.296 241.383,266.419 241.481,267.593 241.481 C 269.047 241.481,269.155 241.158,268.494 238.777 C 267.973 236.901,266.333 235.870,264.074 235.997 C 262.508 236.084,262.400 236.029,262.290 235.082 C 262.192 234.241,261.993 234.074,261.087 234.074 L 260.000 234.074 260.000 239.259 M191.481 240.667 C 191.481 242.498,189.348 243.402,188.549 241.909 C 188.004 240.890,189.022 239.630,190.391 239.630 C 191.338 239.630,191.481 239.766,191.481 240.667 M192.240 258.718 C 188.571 260.980,186.324 262.914,184.066 265.751 C 182.590 267.606,181.899 268.175,180.894 268.364 C 179.389 268.646,178.910 269.368,179.155 270.984 C 179.292 271.885,178.989 272.735,177.834 274.688 C 176.111 277.600,174.227 282.955,173.880 285.926 L 173.642 287.963 175.322 284.311 C 178.629 277.119,180.922 273.844,182.334 274.298 C 182.782 274.442,183.485 274.599,183.898 274.646 C 184.882 274.758,197.096 283.308,196.848 283.710 C 196.742 283.881,192.325 287.046,187.032 290.744 C 177.151 297.647,176.535 298.239,177.852 299.556 C 178.726 300.430,179.648 299.908,189.812 292.796 L 200.106 285.593 201.812 286.765 C 202.751 287.410,207.185 290.512,211.667 293.659 C 220.741 300.030,221.542 300.468,222.454 299.556 C 223.768 298.243,222.933 297.449,212.989 290.556 C 207.699 286.889,203.416 283.729,203.471 283.533 C 203.611 283.032,215.750 274.571,216.355 274.553 C 216.628 274.544,217.285 274.421,217.815 274.279 C 219.385 273.859,222.316 278.086,225.216 284.950 C 226.782 288.657,226.970 288.483,226.080 284.151 C 225.403 280.858,223.811 276.824,222.162 274.223 C 221.305 272.873,221.004 271.947,220.971 270.562 C 220.926 268.711,220.923 268.708,219.444 268.382 C 218.244 268.117,217.647 267.644,216.296 265.891 C 214.340 263.352,210.887 260.371,207.665 258.440 C 204.388 256.476,204.371 256.692,207.568 259.678 C 210.799 262.696,215.185 268.012,215.185 268.910 C 215.185 270.642,213.861 271.925,207.352 276.500 C 203.668 279.089,200.466 281.228,200.235 281.252 C 199.583 281.321,185.950 271.727,185.937 271.191 C 185.931 270.929,185.676 270.333,185.370 269.866 C 184.586 268.670,186.050 266.534,191.308 261.204 C 193.569 258.912,195.316 257.037,195.192 257.037 C 195.068 257.037,193.739 257.793,192.240 258.718 " stroke="none" fill="#fafafa" fill-rule="evenodd"></path><path id="path1" d="M199.167 68.039 C 199.625 68.127,200.375 68.127,200.833 68.039 C 201.292 67.951,200.917 67.879,200.000 67.879 C 199.083 67.879,198.708 67.951,199.167 68.039 M95.366 201.296 C 95.366 231.241,95.409 243.436,95.463 228.397 C 95.517 213.358,95.517 188.858,95.463 173.952 C 95.409 159.047,95.365 171.352,95.366 201.296 M316.476 212.222 C 316.476 237.583,316.520 247.958,316.574 235.278 C 316.628 222.597,316.628 201.847,316.574 189.167 C 316.520 176.486,316.476 186.861,316.476 212.222 M310.179 212.407 C 310.179 237.667,310.224 247.945,310.278 235.249 C 310.332 222.553,310.332 201.886,310.278 189.323 C 310.224 176.760,310.179 187.148,310.179 212.407 M187.593 171.481 L 179.074 171.688 187.478 171.770 C 192.772 171.821,195.967 171.715,196.111 171.481 C 196.237 171.278,196.289 171.148,196.226 171.193 C 196.163 171.238,192.278 171.368,187.593 171.481 M249.815 171.481 L 242.778 171.691 249.700 171.772 C 254.005 171.822,256.710 171.712,256.852 171.481 C 256.978 171.278,257.029 171.147,256.966 171.191 C 256.903 171.235,253.685 171.366,249.815 171.481 M143.056 171.759 C 147.079 171.819,153.662 171.819,157.685 171.759 C 161.708 171.699,158.417 171.650,150.370 171.650 C 142.324 171.650,139.032 171.699,143.056 171.759 M214.746 171.759 C 218.477 171.819,224.477 171.819,228.080 171.759 C 231.682 171.698,228.630 171.649,221.296 171.649 C 213.963 171.649,211.015 171.698,214.746 171.759 M230.149 188.519 C 230.149 191.676,230.206 192.968,230.275 191.389 C 230.345 189.810,230.345 187.227,230.275 185.648 C 230.206 184.069,230.149 185.361,230.149 188.519 M219.529 184.341 C 220.186 184.423,221.353 184.425,222.121 184.344 C 222.890 184.264,222.352 184.197,220.926 184.196 C 219.500 184.194,218.871 184.260,219.529 184.341 M276.800 200.000 C 276.800 201.935,276.863 202.727,276.939 201.759 C 277.015 200.792,277.015 199.208,276.939 198.241 C 276.863 197.273,276.800 198.065,276.800 200.000 M207.677 200.638 C 208.334 200.719,209.501 200.721,210.270 200.641 C 211.038 200.560,210.500 200.494,209.074 200.492 C 207.648 200.490,207.019 200.556,207.677 200.638 M230.153 209.074 C 230.153 212.741,230.209 214.191,230.276 212.296 C 230.344 210.402,230.343 207.402,230.275 205.629 C 230.208 203.857,230.153 205.407,230.153 209.074 M213.796 205.828 C 214.764 205.904,216.347 205.904,217.315 205.828 C 218.282 205.751,217.491 205.689,215.556 205.689 C 213.620 205.689,212.829 205.751,213.796 205.828 M149.197 225.833 C 177.375 225.886,223.375 225.886,251.419 225.833 C 279.463 225.781,256.407 225.738,200.185 225.738 C 143.963 225.738,121.018 225.781,149.197 225.833 M210.518 239.259 C 210.518 242.213,210.575 243.421,210.645 241.944 C 210.716 240.468,210.716 238.051,210.645 236.574 C 210.575 235.097,210.518 236.306,210.518 239.259 M259.777 239.259 C 259.777 242.213,259.834 243.421,259.905 241.944 C 259.975 240.468,259.975 238.051,259.905 236.574 C 259.834 235.097,259.777 236.306,259.777 239.259 M217.690 241.743 C 218.150 241.832,218.817 241.829,219.171 241.736 C 219.525 241.643,219.148 241.571,218.333 241.575 C 217.519 241.579,217.229 241.655,217.690 241.743 M266.949 241.743 C 267.409 241.832,268.076 241.829,268.430 241.736 C 268.784 241.643,268.407 241.571,267.593 241.575 C 266.778 241.579,266.488 241.655,266.949 241.743 M83.092 251.481 C 83.092 253.213,83.156 253.921,83.234 253.056 C 83.312 252.190,83.312 250.773,83.234 249.907 C 83.156 249.042,83.092 249.750,83.092 251.481 M313.090 252.407 C 313.091 254.037,313.156 254.658,313.235 253.787 C 313.313 252.915,313.312 251.582,313.232 250.824 C 313.153 250.065,313.089 250.778,313.090 252.407 " stroke="none" fill="#9c9494" fill-rule="evenodd"></path><path id="path2" d="M194.815 63.130 C 191.484 63.986,190.755 64.375,169.492 76.637 C 158.262 83.113,140.157 93.541,129.259 99.810 C 80.694 127.744,82.024 126.794,78.973 135.741 L 77.963 138.704 77.963 200.000 L 77.963 261.296 78.978 264.288 C 81.162 270.731,84.435 274.281,92.507 278.960 C 149.330 311.901,190.527 335.443,192.634 336.175 C 200.807 339.018,205.160 337.913,220.459 329.117 C 249.009 312.701,308.655 278.229,311.032 276.771 C 316.914 273.163,319.926 268.704,321.362 261.481 C 322.161 257.465,322.092 141.689,321.288 137.489 C 320.251 132.068,316.681 127.026,311.481 123.639 C 310.361 122.910,290.611 111.441,267.593 98.154 C 244.574 84.867,223.826 72.806,221.485 71.350 C 209.515 63.906,201.460 61.424,194.815 63.130 M203.729 68.375 C 206.859 69.304,207.665 69.754,252.037 95.361 C 275.056 108.644,296.139 120.730,298.889 122.218 C 310.179 128.326,314.496 132.435,316.150 138.648 C 316.914 141.518,316.899 257.177,316.134 260.786 C 314.859 266.803,312.165 269.960,304.547 274.365 C 301.740 275.988,281.611 287.607,259.815 300.185 C 238.019 312.764,218.403 324.111,216.225 325.401 C 207.203 330.745,203.564 332.052,198.504 331.764 C 193.768 331.494,195.041 332.178,141.763 301.251 C 127.964 293.241,112.280 284.199,106.911 281.158 C 87.239 270.017,85.706 268.670,83.849 260.884 C 82.881 256.826,83.067 140.923,84.046 137.775 C 85.859 131.950,89.840 128.319,101.296 122.044 C 104.556 120.258,126.139 107.876,149.259 94.527 C 172.380 81.178,192.191 69.858,193.285 69.372 C 197.073 67.689,200.362 67.375,203.729 68.375 M195.741 74.032 C 194.722 74.402,189.306 77.361,183.704 80.609 C 178.102 83.856,155.616 96.840,133.735 109.460 C 87.487 136.136,89.113 134.984,87.811 142.027 C 87.263 144.990,87.249 256.582,87.796 259.952 C 88.940 267.002,89.322 267.303,118.704 284.260 C 131.333 291.548,151.917 303.439,164.444 310.682 C 176.972 317.925,188.457 324.562,189.966 325.430 C 194.990 328.320,199.627 329.391,203.380 328.527 C 205.830 327.962,208.201 326.705,222.963 318.141 C 248.738 303.188,284.702 282.461,292.037 278.332 C 308.846 268.869,310.326 267.617,312.110 261.357 C 312.928 258.489,312.828 142.410,312.006 139.641 C 310.533 134.680,313.279 136.458,256.195 103.495 C 199.783 70.919,201.719 71.863,195.741 74.032 M202.793 76.125 C 204.084 76.459,206.768 77.745,209.259 79.224 C 219.977 85.588,291.117 126.467,295.741 128.918 C 304.888 133.767,308.984 137.618,309.996 142.318 C 310.629 145.263,310.353 259.671,309.708 261.547 C 308.061 266.337,309.745 265.208,270.741 287.672 C 253.935 297.351,232.769 309.561,223.704 314.804 C 203.093 326.728,204.514 326.011,201.064 326.217 C 196.319 326.501,197.028 326.877,142.037 294.929 C 129.407 287.592,115.741 279.713,111.667 277.420 C 93.237 267.050,92.289 266.300,90.557 260.741 C 89.676 257.914,89.702 143.731,90.584 140.762 C 91.922 136.255,88.300 138.579,145.050 105.816 C 196.604 76.053,196.000 76.392,198.280 75.941 C 200.478 75.506,200.375 75.501,202.793 76.125 M197.035 82.568 C 193.473 83.652,100.798 137.553,98.679 139.773 C 95.271 143.345,95.532 138.010,95.643 201.852 L 95.741 257.963 96.782 260.083 C 98.379 263.335,97.728 262.930,147.651 291.741 C 199.776 321.823,196.591 320.104,200.202 320.115 C 203.756 320.126,200.630 321.818,253.333 291.370 C 301.318 263.648,302.045 263.193,303.714 259.815 L 304.630 257.963 304.630 201.296 L 304.630 144.630 303.590 142.513 C 303.015 141.341,301.832 139.771,300.939 138.995 C 298.851 137.179,205.630 83.395,203.415 82.728 C 201.612 82.185,198.546 82.109,197.035 82.568 M220.926 119.630 C 228.024 127.981,233.952 134.815,234.100 134.815 C 234.248 134.815,236.074 132.886,238.157 130.528 C 240.240 128.170,242.064 126.378,242.210 126.546 C 242.356 126.714,246.190 131.019,250.731 136.111 L 258.986 145.370 269.771 150.440 L 280.556 155.510 283.635 160.996 C 285.329 164.013,287.382 167.690,288.198 169.167 L 289.682 171.852 288.452 171.839 C 287.239 171.827,287.165 171.724,283.148 164.438 L 279.074 157.050 274.259 155.068 C 271.611 153.978,266.438 151.870,262.763 150.384 L 256.081 147.681 248.504 139.237 C 244.336 134.592,240.877 130.927,240.818 131.091 C 240.758 131.256,241.717 136.855,242.949 143.533 C 244.180 150.212,245.146 155.710,245.094 155.752 C 245.042 155.794,241.833 157.676,237.963 159.934 C 234.093 162.192,230.625 164.260,230.258 164.529 C 229.637 164.985,229.762 165.248,232.017 168.237 C 233.352 170.007,234.444 171.545,234.444 171.654 C 234.444 171.763,228.559 171.852,221.367 171.852 L 208.289 171.852 201.097 163.911 C 197.142 159.544,193.847 156.029,193.776 156.100 C 193.667 156.210,195.510 167.648,196.150 170.833 L 196.355 171.852 187.807 171.852 C 183.106 171.852,179.262 171.727,179.264 171.574 C 179.267 171.421,181.435 168.826,184.082 165.807 C 188.304 160.990,188.837 160.238,188.428 159.668 C 187.037 157.728,160.556 129.303,160.358 129.537 C 160.228 129.690,159.153 135.398,157.970 142.222 C 156.786 149.046,155.752 154.809,155.672 155.027 C 155.592 155.246,158.860 157.642,162.934 160.351 L 170.342 165.277 167.553 168.565 L 164.765 171.852 150.342 171.852 L 135.920 171.852 132.968 169.907 C 129.419 167.569,129.399 168.655,133.112 162.032 C 134.824 158.979,136.089 156.431,135.922 156.369 C 135.662 156.272,114.379 161.035,114.216 161.227 C 114.184 161.265,113.030 163.671,111.652 166.574 C 109.449 171.216,109.040 171.852,108.253 171.852 C 107.492 171.852,111.914 162.029,113.573 160.033 C 113.698 159.883,117.454 159.041,131.969 155.912 L 139.309 154.329 150.247 140.127 C 156.263 132.315,161.305 125.850,161.452 125.759 C 161.598 125.669,164.452 128.966,167.792 133.088 L 173.866 140.581 190.915 122.519 C 200.291 112.585,207.976 104.454,207.992 104.451 C 208.008 104.447,213.828 111.278,220.926 119.630 M206.686 108.889 C 206.681 108.991,207.824 114.574,209.225 121.296 C 210.626 128.019,211.666 133.635,211.535 133.776 C 211.404 133.918,207.880 136.228,203.704 138.910 C 199.528 141.592,196.056 143.836,195.989 143.898 C 195.922 143.959,199.091 147.823,203.032 152.484 L 210.198 160.958 220.747 149.281 C 226.549 142.859,231.296 137.404,231.296 137.159 C 231.296 136.915,226.130 130.854,219.815 123.691 C 213.500 116.528,207.964 110.225,207.513 109.685 C 207.062 109.145,206.690 108.787,206.686 108.889 M186.028 117.725 C 187.296 118.358,188.981 119.429,189.773 120.106 L 191.213 121.336 182.574 130.488 C 177.823 135.521,173.822 139.512,173.684 139.357 C 171.617 137.036,164.815 128.343,164.815 128.023 C 164.816 127.263,166.971 123.006,168.040 121.655 C 171.992 116.656,180.265 114.849,186.028 117.725 M263.287 163.603 C 270.151 171.911,270.113 171.853,268.611 171.850 C 267.773 171.848,266.581 170.766,261.881 165.740 C 258.740 162.381,256.103 159.700,256.020 159.782 C 255.875 159.927,256.457 167.051,256.877 170.278 L 257.082 171.852 249.992 171.852 C 245.795 171.852,242.952 171.712,243.025 171.508 C 243.204 171.011,256.437 155.962,256.713 155.942 C 256.841 155.933,259.799 159.381,263.287 163.603 M302.222 200.001 L 302.222 225.927 200.093 225.834 L 97.963 225.741 97.867 200.370 C 97.814 186.417,97.851 174.792,97.948 174.537 C 98.089 174.168,118.876 174.074,200.174 174.074 L 302.222 174.074 302.222 200.001 M161.933 178.764 C 159.426 180.000,159.074 181.018,159.074 187.037 L 159.074 192.407 163.982 200.926 L 168.890 209.444 168.889 212.685 L 168.889 215.926 167.222 215.926 L 165.556 215.926 165.556 211.111 L 165.556 206.296 162.222 206.296 L 158.889 206.296 158.889 211.864 C 158.889 220.844,159.593 221.667,167.288 221.667 C 174.794 221.667,175.650 220.716,175.477 212.562 L 175.370 207.531 170.499 199.043 L 165.629 190.556 165.499 187.315 L 165.370 184.074 167.130 184.074 L 168.889 184.074 168.889 187.407 L 168.889 190.741 172.252 190.741 L 175.616 190.741 175.493 186.204 C 175.355 181.090,174.867 179.896,172.451 178.749 C 170.676 177.907,163.652 177.917,161.933 178.764 M182.230 178.797 C 181.521 179.153,180.562 180.011,180.100 180.703 L 179.259 181.961 179.259 201.907 L 179.259 221.852 182.414 221.852 L 185.569 221.852 185.470 202.963 L 185.370 184.074 187.870 184.074 L 190.370 184.074 190.370 202.963 L 190.370 221.852 193.519 221.852 L 196.667 221.852 196.667 201.907 L 196.667 181.961 195.826 180.703 C 194.420 178.599,193.036 178.149,187.963 178.149 C 184.470 178.149,183.243 178.288,182.230 178.797 M200.370 200.000 L 200.370 221.852 203.529 221.852 L 206.689 221.852 206.585 211.111 L 206.481 200.370 208.981 200.370 L 211.481 200.370 211.481 197.407 L 211.481 194.444 209.074 194.444 L 206.667 194.444 206.667 186.296 L 206.667 178.148 203.519 178.148 L 200.370 178.148 200.370 200.000 M215.266 178.764 C 212.754 180.002,212.407 181.011,212.407 187.095 L 212.407 192.524 213.553 193.947 C 214.493 195.115,215.456 195.672,218.923 197.055 L 223.148 198.739 223.248 207.333 L 223.347 215.926 221.118 215.926 L 218.889 215.926 218.889 210.926 L 218.889 205.926 215.556 205.926 L 212.222 205.926 212.222 211.765 C 212.222 221.813,212.397 221.930,227.284 221.775 C 241.716 221.625,241.239 222.013,241.410 210.269 C 241.572 199.144,241.333 198.675,234.073 195.893 L 230.000 194.331 230.000 188.146 C 230.000 181.182,229.703 180.248,227.043 178.834 C 225.277 177.896,217.126 177.847,215.266 178.764 M223.333 187.778 C 223.333 189.815,223.189 191.481,223.012 191.481 C 222.836 191.481,221.836 191.126,220.790 190.691 L 218.889 189.901 218.889 188.145 C 218.889 187.179,218.785 185.868,218.657 185.231 L 218.426 184.074 220.880 184.074 L 223.333 184.074 223.333 187.778 M123.704 200.000 L 123.704 203.333 126.852 203.333 L 130.000 203.333 130.000 200.000 L 130.000 196.667 126.852 196.667 L 123.704 196.667 123.704 200.000 M270.000 200.000 L 270.000 203.333 273.333 203.333 L 276.667 203.333 276.667 200.000 L 276.667 196.667 273.333 196.667 L 270.000 196.667 270.000 200.000 M232.437 202.373 L 234.630 203.265 234.731 209.613 L 234.832 215.962 232.509 215.851 L 230.185 215.741 230.085 208.611 C 230.029 204.690,230.043 201.481,230.114 201.481 C 230.186 201.481,231.231 201.883,232.437 202.373 M164.530 234.120 C 165.648 234.718,166.356 236.186,166.420 238.038 L 166.481 239.815 165.093 239.930 C 163.726 240.043,163.704 240.023,163.704 238.726 C 163.704 237.449,162.696 235.926,161.852 235.926 C 160.521 235.926,160.000 237.392,160.000 241.133 L 160.000 244.860 158.611 244.745 L 157.222 244.630 157.222 240.490 C 157.222 234.304,160.133 231.767,164.530 234.120 M191.831 234.409 C 192.533 234.762,193.366 235.572,193.683 236.209 C 194.000 236.847,194.593 237.418,195.000 237.480 C 196.129 237.651,196.049 239.771,194.907 239.933 C 194.208 240.032,194.074 240.281,194.074 241.474 C 194.074 244.822,189.040 246.110,186.604 243.384 C 184.309 240.815,186.389 237.407,190.253 237.407 C 191.208 237.407,191.232 237.369,190.643 236.781 C 189.754 235.891,186.577 235.927,185.571 236.838 C 184.907 237.439,184.815 237.968,184.815 241.191 L 184.815 244.860 183.426 244.745 L 182.037 244.630 181.921 241.481 C 181.663 234.480,185.926 231.438,191.831 234.409 M134.074 237.013 C 134.074 241.221,134.426 242.222,135.904 242.222 C 137.460 242.222,137.778 241.379,137.778 237.247 L 137.778 233.704 139.259 233.704 L 140.741 233.704 140.741 237.447 C 140.741 240.998,140.788 241.227,141.667 241.918 C 142.786 242.799,142.831 243.373,141.852 244.259 C 141.149 244.895,141.075 244.897,140.404 244.290 C 139.753 243.700,139.608 243.696,138.571 244.232 C 134.168 246.509,131.451 244.098,131.191 237.685 L 131.029 233.704 132.552 233.704 L 134.074 233.704 134.074 237.013 M213.333 234.832 C 213.333 235.910,213.388 235.949,214.570 235.728 C 217.368 235.203,219.630 237.280,219.630 240.374 L 219.630 241.897 218.241 241.782 C 216.950 241.675,216.843 241.575,216.729 240.372 C 216.328 236.145,213.333 237.657,213.333 242.086 L 213.333 244.860 211.944 244.745 L 210.556 244.630 210.453 239.167 L 210.351 233.704 211.842 233.704 C 213.257 233.704,213.333 233.761,213.333 234.832 M237.778 236.029 C 237.778 238.530,238.444 240.000,239.577 240.000 C 240.625 240.000,241.111 239.214,241.111 237.519 L 241.111 235.926 242.593 235.926 L 244.074 235.926 244.074 240.393 L 244.074 244.860 242.685 244.745 C 241.421 244.640,241.286 244.523,241.181 243.440 C 241.077 242.356,240.975 242.268,240.044 242.454 C 237.098 243.043,235.203 240.911,234.913 236.680 L 234.709 233.704 236.243 233.704 L 237.778 233.704 237.778 236.029 M262.593 234.855 C 262.593 235.903,262.677 235.985,263.532 235.770 C 266.343 235.065,268.885 237.215,268.888 240.300 L 268.889 241.897 267.500 241.782 C 266.190 241.673,266.101 241.585,265.926 240.223 C 265.418 236.266,262.593 237.659,262.593 241.866 L 262.593 244.860 261.204 244.745 L 259.815 244.630 259.712 239.167 L 259.610 233.704 261.101 233.704 C 262.523 233.704,262.593 233.757,262.593 234.855 M188.963 240.444 C 188.315 241.093,188.418 241.772,189.232 242.208 C 190.306 242.783,191.111 242.296,191.111 241.071 C 191.111 239.904,189.867 239.541,188.963 240.444 M195.924 256.759 C 195.923 256.810,193.965 258.852,191.572 261.296 C 189.180 263.741,186.747 266.441,186.165 267.298 L 185.108 268.855 185.795 270.293 C 186.487 271.743,199.491 281.356,200.344 281.049 C 201.651 280.578,214.044 271.554,214.058 271.064 C 214.067 270.732,214.324 270.254,214.630 270.000 C 215.760 269.062,213.286 265.535,207.757 260.206 C 205.908 258.423,204.483 256.875,204.592 256.766 C 205.447 255.911,214.872 263.234,217.069 266.461 C 217.708 267.398,218.333 267.841,219.259 268.009 C 221.251 268.371,221.580 268.793,221.305 270.630 C 221.117 271.883,221.220 272.447,221.782 273.244 C 224.134 276.576,227.037 284.846,227.037 288.216 C 227.037 289.106,226.313 288.295,225.736 286.759 C 223.231 280.089,219.537 274.298,217.982 274.605 C 217.361 274.727,216.602 274.848,216.296 274.874 C 215.887 274.909,208.524 279.849,203.432 283.506 C 203.385 283.540,207.135 286.210,211.766 289.440 C 223.041 297.305,222.963 297.242,222.963 298.562 C 222.963 299.720,221.847 300.476,220.741 300.068 C 220.435 299.956,215.722 296.728,210.267 292.895 C 204.813 289.062,200.267 285.926,200.167 285.926 C 200.067 285.926,195.613 288.985,190.270 292.725 C 179.000 300.612,179.137 300.529,178.173 300.013 C 175.669 298.673,176.298 297.987,186.670 290.743 C 191.659 287.258,195.963 284.187,196.236 283.917 C 196.752 283.407,185.353 274.965,184.074 274.911 C 183.769 274.898,182.986 274.768,182.335 274.623 C 181.186 274.368,181.100 274.439,179.420 277.036 C 177.648 279.774,174.675 285.806,174.238 287.547 C 173.954 288.676,173.333 288.851,173.333 287.802 C 173.333 284.848,175.804 277.445,177.898 274.123 C 178.899 272.536,179.112 271.865,178.994 270.677 C 178.812 268.864,179.241 268.305,181.033 268.018 C 182.020 267.861,182.600 267.499,183.038 266.769 C 185.038 263.436,195.957 254.954,195.924 256.759 " stroke="none" fill="#342c2c" fill-rule="evenodd"></path><path id="path3" d="M206.647 105.833 L 205.370 107.222 206.759 105.946 C 208.052 104.758,208.318 104.444,208.036 104.444 C 207.974 104.444,207.349 105.069,206.647 105.833 M200.741 112.037 C 199.841 112.954,199.188 113.704,199.290 113.704 C 199.392 113.704,200.211 112.954,201.111 112.037 C 202.011 111.120,202.663 110.370,202.562 110.370 C 202.460 110.370,201.640 111.120,200.741 112.037 M194.444 118.704 C 193.545 119.620,192.892 120.370,192.994 120.370 C 193.096 120.370,193.915 119.620,194.815 118.704 C 195.714 117.787,196.367 117.037,196.265 117.037 C 196.163 117.037,195.344 117.787,194.444 118.704 M188.686 123.796 L 187.222 125.370 188.796 123.906 C 190.260 122.545,190.541 122.222,190.260 122.222 C 190.200 122.222,189.492 122.931,188.686 123.796 M188.148 125.370 C 187.249 126.287,186.596 127.037,186.698 127.037 C 186.799 127.037,187.619 126.287,188.519 125.370 C 189.418 124.454,190.071 123.704,189.969 123.704 C 189.867 123.704,189.048 124.454,188.148 125.370 M88.519 130.556 C 87.619 131.472,86.966 132.222,87.068 132.222 C 87.170 132.222,87.989 131.472,88.889 130.556 C 89.789 129.639,90.441 128.889,90.339 128.889 C 90.238 128.889,89.418 129.639,88.519 130.556 M182.390 130.463 L 180.926 132.037 182.500 130.573 C 183.964 129.211,184.244 128.889,183.964 128.889 C 183.904 128.889,183.195 129.597,182.390 130.463 M311.111 130.556 C 311.802 131.269,312.451 131.852,312.553 131.852 C 312.655 131.852,312.173 131.269,311.481 130.556 C 310.790 129.843,310.142 129.259,310.040 129.259 C 309.938 129.259,310.420 129.843,311.111 130.556 M181.852 132.037 C 180.952 132.954,180.299 133.704,180.401 133.704 C 180.503 133.704,181.323 132.954,182.222 132.037 C 183.122 131.120,183.775 130.370,183.673 130.370 C 183.571 130.370,182.751 131.120,181.852 132.037 M162.963 131.968 C 162.963 132.031,163.505 132.573,164.167 133.171 L 165.370 134.259 164.283 133.056 C 163.269 131.934,162.963 131.682,162.963 131.968 M176.094 137.130 L 174.630 138.704 176.204 137.240 C 177.668 135.878,177.948 135.556,177.668 135.556 C 177.607 135.556,176.899 136.264,176.094 137.130 M175.556 138.704 C 174.656 139.620,174.003 140.370,174.105 140.370 C 174.207 140.370,175.026 139.620,175.926 138.704 C 176.826 137.787,177.478 137.037,177.376 137.037 C 177.275 137.037,176.455 137.787,175.556 138.704 M312.679 144.074 C 312.679 144.787,312.755 145.079,312.848 144.722 C 312.941 144.366,312.941 143.782,312.848 143.426 C 312.755 143.069,312.679 143.361,312.679 144.074 M175.556 145.671 C 175.556 145.735,176.097 146.277,176.759 146.875 L 177.963 147.963 176.875 146.759 C 175.861 145.637,175.556 145.385,175.556 145.671 M312.772 195.556 C 312.772 222.546,312.816 233.588,312.870 220.093 C 312.924 206.597,312.924 184.514,312.870 171.019 C 312.816 157.523,312.772 168.565,312.772 195.556 M260.556 164.444 C 261.351 165.259,262.086 165.926,262.187 165.926 C 262.289 165.926,261.722 165.259,260.926 164.444 C 260.130 163.630,259.396 162.963,259.294 162.963 C 259.192 162.963,259.760 163.630,260.556 164.444 M265.556 169.746 C 265.556 169.809,266.097 170.351,266.759 170.949 L 267.963 172.037 266.875 170.833 C 265.861 169.711,265.556 169.459,265.556 169.746 M97.948 174.537 C 97.851 174.792,97.816 186.417,97.870 200.370 L 97.968 225.741 98.058 200.093 L 98.148 174.446 200.278 174.352 L 302.407 174.258 200.266 174.166 C 118.827 174.093,98.089 174.168,97.948 174.537 M206.825 186.296 C 206.825 190.880,206.878 192.755,206.943 190.463 C 207.008 188.171,207.008 184.421,206.943 182.130 C 206.878 179.838,206.825 181.713,206.825 186.296 M179.061 202.407 C 179.061 213.204,179.109 217.567,179.166 212.104 C 179.224 206.640,179.224 197.807,179.166 192.474 C 179.109 187.141,179.061 191.611,179.061 202.407 M196.839 202.407 C 196.839 213.204,196.886 217.567,196.944 212.104 C 197.002 206.640,197.002 197.807,196.944 192.474 C 196.886 187.141,196.839 191.611,196.839 202.407 M190.172 202.963 C 190.172 213.454,190.220 217.745,190.277 212.500 C 190.335 207.255,190.335 198.671,190.277 193.426 C 190.220 188.181,190.172 192.472,190.172 202.963 M185.727 203.704 C 185.727 213.787,185.775 217.912,185.833 212.870 C 185.891 207.829,185.891 199.579,185.833 194.537 C 185.775 189.495,185.727 193.620,185.727 203.704 M123.467 200.000 C 123.467 201.935,123.529 202.727,123.606 201.759 C 123.682 200.792,123.682 199.208,123.606 198.241 C 123.529 197.273,123.467 198.065,123.467 200.000 M130.134 200.000 C 130.134 201.935,130.196 202.727,130.272 201.759 C 130.349 200.792,130.349 199.208,130.272 198.241 C 130.196 197.273,130.134 198.065,130.134 200.000 M206.829 211.667 C 206.830 217.370,206.881 219.652,206.944 216.737 C 207.006 213.822,207.006 209.155,206.943 206.366 C 206.881 203.578,206.829 205.963,206.829 211.667 M160.463 206.198 C 161.431 206.274,163.014 206.274,163.981 206.198 C 164.949 206.122,164.157 206.059,162.222 206.059 C 160.287 206.059,159.495 206.122,160.463 206.198 M219.907 215.823 C 220.569 215.906,221.653 215.906,222.315 215.823 C 222.977 215.741,222.435 215.674,221.111 215.674 C 219.787 215.674,219.245 215.741,219.907 215.823 M231.389 215.823 C 232.051 215.906,233.134 215.906,233.796 215.823 C 234.458 215.741,233.917 215.674,232.593 215.674 C 231.269 215.674,230.727 215.741,231.389 215.823 M131.246 237.222 C 131.247 239.259,131.310 240.045,131.385 238.969 C 131.460 237.893,131.459 236.226,131.383 235.265 C 131.307 234.305,131.245 235.185,131.246 237.222 M140.507 237.407 C 140.507 239.546,140.569 240.421,140.643 239.352 C 140.718 238.282,140.718 236.532,140.643 235.463 C 140.569 234.394,140.507 235.269,140.507 237.407 M234.933 235.926 C 234.933 237.250,235.001 237.792,235.083 237.130 C 235.165 236.468,235.165 235.384,235.083 234.722 C 235.001 234.060,234.933 234.602,234.933 235.926 M241.205 237.222 C 241.209 238.037,241.284 238.327,241.373 237.866 C 241.462 237.405,241.458 236.739,241.366 236.385 C 241.273 236.030,241.200 236.407,241.205 237.222 M157.201 241.018 L 157.222 244.630 158.614 244.668 L 160.006 244.707 158.720 244.554 L 157.434 244.401 157.307 240.903 L 157.180 237.406 157.201 241.018 M166.347 238.404 C 166.301 239.485,166.179 239.597,164.907 239.730 L 163.519 239.875 164.919 239.938 C 166.438 240.005,166.841 239.550,166.561 238.082 C 166.434 237.415,166.386 237.487,166.347 238.404 M182.016 241.018 L 182.037 244.630 183.429 244.668 L 184.821 244.707 183.535 244.554 L 182.249 244.401 182.122 240.903 L 181.995 237.406 182.016 241.018 M189.352 237.663 C 189.708 237.756,190.292 237.756,190.648 237.663 C 191.005 237.570,190.713 237.493,190.000 237.493 C 189.287 237.493,188.995 237.570,189.352 237.663 M194.700 237.647 C 195.200 237.756,195.572 238.171,195.671 238.731 C 195.810 239.521,195.825 239.506,195.786 238.616 C 195.750 237.801,195.552 237.580,194.815 237.532 C 194.043 237.481,194.024 237.501,194.700 237.647 M241.252 243.148 C 241.295 244.599,241.325 244.630,242.688 244.668 C 244.064 244.707,244.065 244.705,242.802 244.555 C 241.639 244.416,241.509 244.279,241.366 243.034 L 241.208 241.667 241.252 243.148 M211.393 244.706 C 211.854 244.795,212.521 244.792,212.875 244.699 C 213.229 244.606,212.852 244.534,212.037 244.538 C 211.222 244.542,210.932 244.618,211.393 244.706 M260.652 244.706 C 261.113 244.795,261.780 244.792,262.134 244.699 C 262.488 244.606,262.111 244.534,261.296 244.538 C 260.481 244.542,260.192 244.618,260.652 244.706 M89.716 245.926 C 89.716 246.639,89.792 246.931,89.885 246.574 C 89.978 246.218,89.978 245.634,89.885 245.278 C 89.792 244.921,89.716 245.213,89.716 245.926 M83.069 246.852 C 83.072 247.870,83.144 248.243,83.229 247.680 C 83.314 247.117,83.312 246.284,83.224 245.828 C 83.136 245.373,83.066 245.833,83.069 246.852 M191.471 261.019 L 189.074 263.519 191.574 261.122 C 193.896 258.896,194.243 258.519,193.971 258.519 C 193.914 258.519,192.789 259.644,191.471 261.019 M208.704 261.111 C 209.499 261.926,210.234 262.593,210.336 262.593 C 210.437 262.593,209.870 261.926,209.074 261.111 C 208.278 260.296,207.544 259.630,207.442 259.630 C 207.340 259.630,207.908 260.296,208.704 261.111 M306.458 266.389 L 305.370 267.593 306.574 266.505 C 307.236 265.906,307.778 265.365,307.778 265.301 C 307.778 265.015,307.472 265.267,306.458 266.389 M88.333 269.630 C 89.129 270.444,89.863 271.111,89.965 271.111 C 90.067 271.111,89.499 270.444,88.704 269.630 C 87.908 268.815,87.174 268.148,87.072 268.148 C 86.970 268.148,87.538 268.815,88.333 269.630 " stroke="none" fill="#6d6d6c" fill-rule="evenodd"></path><path id="path4" d="M178.796 116.558 C 179.255 116.646,180.005 116.646,180.463 116.558 C 180.921 116.469,180.546 116.397,179.630 116.397 C 178.713 116.397,178.338 116.469,178.796 116.558 M316.390 143.148 C 316.394 143.963,316.470 144.253,316.558 143.792 C 316.647 143.331,316.643 142.665,316.551 142.310 C 316.458 141.956,316.386 142.333,316.390 143.148 M90.180 192.778 C 90.180 220.278,90.224 231.582,90.278 217.899 C 90.332 204.216,90.332 181.716,90.278 167.899 C 90.224 154.082,90.180 165.278,90.180 192.778 M310.106 146.481 C 310.109 147.500,310.181 147.873,310.266 147.310 C 310.351 146.747,310.349 145.913,310.261 145.458 C 310.173 145.002,310.103 145.463,310.106 146.481 M304.995 201.296 C 304.995 231.241,305.039 243.436,305.093 228.397 C 305.146 213.358,305.146 188.858,305.093 173.952 C 305.039 159.047,304.995 171.352,304.995 201.296 M310.137 162.963 C 310.137 165.102,310.198 165.977,310.273 164.907 C 310.348 163.838,310.348 162.088,310.273 161.019 C 310.198 159.949,310.137 160.824,310.137 162.963 M316.432 162.778 C 316.433 164.815,316.495 165.601,316.570 164.525 C 316.645 163.448,316.644 161.782,316.568 160.821 C 316.492 159.860,316.431 160.741,316.432 162.778 M165.659 178.050 C 166.633 178.127,168.133 178.126,168.993 178.048 C 169.852 177.971,169.056 177.908,167.222 177.909 C 165.389 177.910,164.686 177.974,165.659 178.050 M186.032 178.052 C 187.211 178.126,189.044 178.125,190.106 178.050 C 191.168 177.976,190.204 177.915,187.963 177.916 C 185.722 177.917,184.853 177.978,186.032 178.052 M200.170 178.241 C 200.073 178.495,200.036 188.454,200.089 200.370 L 200.185 222.037 203.333 222.059 L 206.481 222.080 203.426 221.952 L 200.370 221.823 200.370 200.000 L 200.370 178.177 203.611 178.054 L 206.852 177.930 203.599 177.854 C 201.280 177.800,200.296 177.911,200.170 178.241 M219.365 178.052 C 220.544 178.126,222.377 178.125,223.439 178.050 C 224.501 177.976,223.537 177.915,221.296 177.916 C 219.056 177.917,218.187 177.978,219.365 178.052 M158.659 187.037 C 158.659 189.380,158.719 190.338,158.792 189.167 C 158.866 187.995,158.866 186.079,158.792 184.907 C 158.719 183.736,158.659 184.694,158.659 187.037 M175.694 186.852 C 175.695 189.093,175.756 189.962,175.830 188.783 C 175.903 187.604,175.903 185.771,175.828 184.709 C 175.754 183.647,175.693 184.611,175.694 186.852 M211.992 187.037 C 211.992 189.380,212.052 190.338,212.126 189.167 C 212.199 187.995,212.199 186.079,212.126 184.907 C 212.052 183.736,211.992 184.694,211.992 187.037 M166.745 184.346 L 168.490 184.484 168.613 187.705 L 168.737 190.926 168.813 187.500 L 168.889 184.074 166.944 184.141 L 165.000 184.208 166.745 184.346 M186.574 184.342 C 187.236 184.424,188.319 184.424,188.981 184.342 C 189.644 184.260,189.102 184.193,187.778 184.193 C 186.454 184.193,185.912 184.260,186.574 184.342 M165.677 187.963 C 165.679 189.389,165.746 189.927,165.826 189.158 C 165.906 188.390,165.905 187.223,165.823 186.566 C 165.741 185.908,165.675 186.537,165.677 187.963 M211.611 197.407 C 211.611 199.139,211.675 199.847,211.753 198.981 C 211.831 198.116,211.831 196.699,211.753 195.833 C 211.675 194.968,211.611 195.676,211.611 197.407 M125.289 196.569 C 126.263 196.646,127.763 196.645,128.622 196.567 C 129.482 196.489,128.685 196.427,126.852 196.428 C 125.019 196.429,124.315 196.492,125.289 196.569 M271.574 196.569 C 272.542 196.645,274.125 196.645,275.093 196.569 C 276.060 196.492,275.269 196.430,273.333 196.430 C 271.398 196.430,270.606 196.492,271.574 196.569 M125.289 203.606 C 126.263 203.683,127.763 203.682,128.622 203.604 C 129.482 203.526,128.685 203.464,126.852 203.465 C 125.019 203.466,124.315 203.529,125.289 203.606 M234.596 209.444 C 234.596 212.907,234.651 214.374,234.720 212.703 C 234.788 211.033,234.789 208.199,234.720 206.407 C 234.652 204.615,234.596 205.981,234.596 209.444 M271.574 203.606 C 272.542 203.682,274.125 203.682,275.093 203.606 C 276.060 203.529,275.269 203.467,273.333 203.467 C 271.398 203.467,270.606 203.529,271.574 203.606 M212.001 211.481 C 212.001 214.639,212.058 215.931,212.127 214.352 C 212.197 212.773,212.197 210.190,212.127 208.611 C 212.058 207.032,212.001 208.324,212.001 211.481 M158.667 211.667 C 158.667 214.722,158.725 215.923,158.794 214.335 C 158.864 212.747,158.863 210.247,158.793 208.779 C 158.723 207.312,158.666 208.611,158.667 211.667 M165.636 211.019 L 165.556 215.926 167.222 215.926 L 168.889 215.926 168.813 212.500 L 168.737 209.074 168.613 212.315 L 168.490 215.556 167.219 215.556 L 165.948 215.556 165.832 210.833 L 165.717 206.111 165.636 211.019 M175.696 212.963 C 175.696 215.306,175.756 216.264,175.829 215.093 C 175.903 213.921,175.903 212.005,175.829 210.833 C 175.756 209.662,175.696 210.620,175.696 212.963 M165.463 222.125 C 166.532 222.200,168.282 222.200,169.352 222.125 C 170.421 222.050,169.546 221.989,167.407 221.989 C 165.269 221.989,164.394 222.050,165.463 222.125 M180.845 222.125 C 181.818 222.201,183.318 222.200,184.178 222.122 C 185.037 222.045,184.241 221.982,182.407 221.983 C 180.574 221.984,179.871 222.048,180.845 222.125 M191.956 222.125 C 192.929 222.201,194.429 222.200,195.289 222.122 C 196.149 222.045,195.352 221.982,193.519 221.983 C 191.685 221.984,190.982 222.048,191.956 222.125 M132.134 233.966 C 132.595 234.054,133.261 234.051,133.615 233.958 C 133.970 233.865,133.593 233.793,132.778 233.797 C 131.963 233.801,131.673 233.877,132.134 233.966 M138.430 233.966 C 138.891 234.054,139.558 234.051,139.912 233.958 C 140.266 233.865,139.889 233.793,139.074 233.797 C 138.259 233.801,137.970 233.877,138.430 233.966 M211.737 233.970 C 212.749 234.096,212.941 234.288,213.067 235.300 C 213.209 236.436,213.217 236.429,213.274 235.093 C 213.333 233.714,213.323 233.704,211.944 233.763 C 210.608 233.820,210.601 233.828,211.737 233.970 M235.838 233.966 C 236.298 234.054,236.965 234.051,237.319 233.958 C 237.673 233.865,237.296 233.793,236.481 233.797 C 235.667 233.801,235.377 233.877,235.838 233.966 M260.996 233.970 C 261.945 234.089,262.207 234.313,262.329 235.114 C 262.467 236.015,262.487 235.996,262.537 234.907 C 262.591 233.744,262.546 233.706,261.204 233.763 C 259.869 233.820,259.861 233.828,260.996 233.970 M242.134 236.188 C 242.595 236.276,243.261 236.273,243.615 236.180 C 243.970 236.088,243.593 236.015,242.778 236.019 C 241.963 236.023,241.673 236.099,242.134 236.188 M87.191 245.370 C 87.192 249.241,87.247 250.774,87.313 248.777 C 87.380 246.780,87.380 243.614,87.313 241.740 C 87.246 239.866,87.191 241.500,87.191 245.370 M213.084 242.037 C 213.086 243.463,213.153 244.001,213.233 243.232 C 213.313 242.464,213.312 241.297,213.230 240.640 C 213.148 239.982,213.083 240.611,213.084 242.037 M262.344 242.037 C 262.345 243.463,262.412 244.001,262.493 243.232 C 262.573 242.464,262.571 241.297,262.490 240.640 C 262.408 239.982,262.342 240.611,262.344 242.037 M135.278 244.700 C 135.634 244.793,136.218 244.793,136.574 244.700 C 136.931 244.607,136.639 244.530,135.926 244.530 C 135.213 244.530,134.921 244.607,135.278 244.700 M189.352 244.700 C 189.708 244.793,190.292 244.793,190.648 244.700 C 191.005 244.607,190.713 244.530,190.000 244.530 C 189.287 244.530,188.995 244.607,189.352 244.700 M313.056 248.333 C 313.060 249.148,313.136 249.438,313.225 248.977 C 313.314 248.516,313.310 247.850,313.217 247.496 C 313.125 247.142,313.052 247.519,313.056 248.333 M89.759 251.852 C 89.759 253.583,89.823 254.292,89.901 253.426 C 89.979 252.560,89.979 251.144,89.901 250.278 C 89.823 249.412,89.759 250.120,89.759 251.852 " stroke="none" fill="#a4a4a4" fill-rule="evenodd"></path>
  </g>
</svg>
